<?xml version="1.0" encoding="utf-8" standalone="no"?>
<!DOCTYPE svg PUBLIC "-//W3C//DTD SVG 1.1//EN"
  "http://www.w3.org/Graphics/SVG/1.1/DTD/svg11.dtd">
<!-- Created with matplotlib (https://matplotlib.org/) -->
<svg height="345.6pt" version="1.1" viewBox="0 0 460.8 345.6" width="460.8pt" xmlns="http://www.w3.org/2000/svg" xmlns:xlink="http://www.w3.org/1999/xlink">
 <defs>
  <style type="text/css">
*{stroke-linecap:butt;stroke-linejoin:round;white-space:pre;}
  </style>
 </defs>
 <g id="figure_1">
  <g id="patch_1">
   <path d="M 0 345.6 
L 460.8 345.6 
L 460.8 0 
L 0 0 
z
" style="fill:#ffffff;"/>
  </g>
  <g id="axes_1">
   <g id="patch_2">
    <path d="M 57.6 307.584 
L 414.72 307.584 
L 414.72 41.472 
L 57.6 41.472 
z
" style="fill:#ffffff;"/>
   </g>
   <g id="matplotlib.axis_1">
    <g id="xtick_1">
     <g id="line2d_1">
      <defs>
       <path d="M 0 0 
L 0 3.5 
" id="maa5affe619" style="stroke:#000000;stroke-width:0.8;"/>
      </defs>
      <g>
       <use style="stroke:#000000;stroke-width:0.8;" x="72.154018" xlink:href="#maa5affe619" y="307.584"/>
      </g>
     </g>
     <g id="text_1">
      <!-- −1.00 -->
      <defs>
       <path d="M 10.59375 35.5 
L 73.1875 35.5 
L 73.1875 27.203125 
L 10.59375 27.203125 
z
" id="DejaVuSans-8722"/>
       <path d="M 12.40625 8.296875 
L 28.515625 8.296875 
L 28.515625 63.921875 
L 10.984375 60.40625 
L 10.984375 69.390625 
L 28.421875 72.90625 
L 38.28125 72.90625 
L 38.28125 8.296875 
L 54.390625 8.296875 
L 54.390625 0 
L 12.40625 0 
z
" id="DejaVuSans-49"/>
       <path d="M 10.6875 12.40625 
L 21 12.40625 
L 21 0 
L 10.6875 0 
z
" id="DejaVuSans-46"/>
       <path d="M 31.78125 66.40625 
Q 24.171875 66.40625 20.328125 58.90625 
Q 16.5 51.421875 16.5 36.375 
Q 16.5 21.390625 20.328125 13.890625 
Q 24.171875 6.390625 31.78125 6.390625 
Q 39.453125 6.390625 43.28125 13.890625 
Q 47.125 21.390625 47.125 36.375 
Q 47.125 51.421875 43.28125 58.90625 
Q 39.453125 66.40625 31.78125 66.40625 
z
M 31.78125 74.21875 
Q 44.046875 74.21875 50.515625 64.515625 
Q 56.984375 54.828125 56.984375 36.375 
Q 56.984375 17.96875 50.515625 8.265625 
Q 44.046875 -1.421875 31.78125 -1.421875 
Q 19.53125 -1.421875 13.0625 8.265625 
Q 6.59375 17.96875 6.59375 36.375 
Q 6.59375 54.828125 13.0625 64.515625 
Q 19.53125 74.21875 31.78125 74.21875 
z
" id="DejaVuSans-48"/>
      </defs>
      <g transform="translate(56.831361 322.182437)scale(0.1 -0.1)">
       <use xlink:href="#DejaVuSans-8722"/>
       <use x="83.789062" xlink:href="#DejaVuSans-49"/>
       <use x="147.412109" xlink:href="#DejaVuSans-46"/>
       <use x="179.199219" xlink:href="#DejaVuSans-48"/>
       <use x="242.822266" xlink:href="#DejaVuSans-48"/>
      </g>
     </g>
    </g>
    <g id="xtick_2">
     <g id="line2d_2">
      <g>
       <use style="stroke:#000000;stroke-width:0.8;" x="113.155607" xlink:href="#maa5affe619" y="307.584"/>
      </g>
     </g>
     <g id="text_2">
      <!-- −0.75 -->
      <defs>
       <path d="M 8.203125 72.90625 
L 55.078125 72.90625 
L 55.078125 68.703125 
L 28.609375 0 
L 18.3125 0 
L 43.21875 64.59375 
L 8.203125 64.59375 
z
" id="DejaVuSans-55"/>
       <path d="M 10.796875 72.90625 
L 49.515625 72.90625 
L 49.515625 64.59375 
L 19.828125 64.59375 
L 19.828125 46.734375 
Q 21.96875 47.46875 24.109375 47.828125 
Q 26.265625 48.1875 28.421875 48.1875 
Q 40.625 48.1875 47.75 41.5 
Q 54.890625 34.8125 54.890625 23.390625 
Q 54.890625 11.625 47.5625 5.09375 
Q 40.234375 -1.421875 26.90625 -1.421875 
Q 22.3125 -1.421875 17.546875 -0.640625 
Q 12.796875 0.140625 7.71875 1.703125 
L 7.71875 11.625 
Q 12.109375 9.234375 16.796875 8.0625 
Q 21.484375 6.890625 26.703125 6.890625 
Q 35.15625 6.890625 40.078125 11.328125 
Q 45.015625 15.765625 45.015625 23.390625 
Q 45.015625 31 40.078125 35.4375 
Q 35.15625 39.890625 26.703125 39.890625 
Q 22.75 39.890625 18.8125 39.015625 
Q 14.890625 38.140625 10.796875 36.28125 
z
" id="DejaVuSans-53"/>
      </defs>
      <g transform="translate(97.83295 322.182437)scale(0.1 -0.1)">
       <use xlink:href="#DejaVuSans-8722"/>
       <use x="83.789062" xlink:href="#DejaVuSans-48"/>
       <use x="147.412109" xlink:href="#DejaVuSans-46"/>
       <use x="179.199219" xlink:href="#DejaVuSans-55"/>
       <use x="242.822266" xlink:href="#DejaVuSans-53"/>
      </g>
     </g>
    </g>
    <g id="xtick_3">
     <g id="line2d_3">
      <g>
       <use style="stroke:#000000;stroke-width:0.8;" x="154.157196" xlink:href="#maa5affe619" y="307.584"/>
      </g>
     </g>
     <g id="text_3">
      <!-- −0.50 -->
      <g transform="translate(138.83454 322.182437)scale(0.1 -0.1)">
       <use xlink:href="#DejaVuSans-8722"/>
       <use x="83.789062" xlink:href="#DejaVuSans-48"/>
       <use x="147.412109" xlink:href="#DejaVuSans-46"/>
       <use x="179.199219" xlink:href="#DejaVuSans-53"/>
       <use x="242.822266" xlink:href="#DejaVuSans-48"/>
      </g>
     </g>
    </g>
    <g id="xtick_4">
     <g id="line2d_4">
      <g>
       <use style="stroke:#000000;stroke-width:0.8;" x="195.158785" xlink:href="#maa5affe619" y="307.584"/>
      </g>
     </g>
     <g id="text_4">
      <!-- −0.25 -->
      <defs>
       <path d="M 19.1875 8.296875 
L 53.609375 8.296875 
L 53.609375 0 
L 7.328125 0 
L 7.328125 8.296875 
Q 12.9375 14.109375 22.625 23.890625 
Q 32.328125 33.6875 34.8125 36.53125 
Q 39.546875 41.84375 41.421875 45.53125 
Q 43.3125 49.21875 43.3125 52.78125 
Q 43.3125 58.59375 39.234375 62.25 
Q 35.15625 65.921875 28.609375 65.921875 
Q 23.96875 65.921875 18.8125 64.3125 
Q 13.671875 62.703125 7.8125 59.421875 
L 7.8125 69.390625 
Q 13.765625 71.78125 18.9375 73 
Q 24.125 74.21875 28.421875 74.21875 
Q 39.75 74.21875 46.484375 68.546875 
Q 53.21875 62.890625 53.21875 53.421875 
Q 53.21875 48.921875 51.53125 44.890625 
Q 49.859375 40.875 45.40625 35.40625 
Q 44.1875 33.984375 37.640625 27.21875 
Q 31.109375 20.453125 19.1875 8.296875 
z
" id="DejaVuSans-50"/>
      </defs>
      <g transform="translate(179.836129 322.182437)scale(0.1 -0.1)">
       <use xlink:href="#DejaVuSans-8722"/>
       <use x="83.789062" xlink:href="#DejaVuSans-48"/>
       <use x="147.412109" xlink:href="#DejaVuSans-46"/>
       <use x="179.199219" xlink:href="#DejaVuSans-50"/>
       <use x="242.822266" xlink:href="#DejaVuSans-53"/>
      </g>
     </g>
    </g>
    <g id="xtick_5">
     <g id="line2d_5">
      <g>
       <use style="stroke:#000000;stroke-width:0.8;" x="236.160374" xlink:href="#maa5affe619" y="307.584"/>
      </g>
     </g>
     <g id="text_5">
      <!-- 0.00 -->
      <g transform="translate(225.027562 322.182437)scale(0.1 -0.1)">
       <use xlink:href="#DejaVuSans-48"/>
       <use x="63.623047" xlink:href="#DejaVuSans-46"/>
       <use x="95.410156" xlink:href="#DejaVuSans-48"/>
       <use x="159.033203" xlink:href="#DejaVuSans-48"/>
      </g>
     </g>
    </g>
    <g id="xtick_6">
     <g id="line2d_6">
      <g>
       <use style="stroke:#000000;stroke-width:0.8;" x="277.161963" xlink:href="#maa5affe619" y="307.584"/>
      </g>
     </g>
     <g id="text_6">
      <!-- 0.25 -->
      <g transform="translate(266.029151 322.182437)scale(0.1 -0.1)">
       <use xlink:href="#DejaVuSans-48"/>
       <use x="63.623047" xlink:href="#DejaVuSans-46"/>
       <use x="95.410156" xlink:href="#DejaVuSans-50"/>
       <use x="159.033203" xlink:href="#DejaVuSans-53"/>
      </g>
     </g>
    </g>
    <g id="xtick_7">
     <g id="line2d_7">
      <g>
       <use style="stroke:#000000;stroke-width:0.8;" x="318.163552" xlink:href="#maa5affe619" y="307.584"/>
      </g>
     </g>
     <g id="text_7">
      <!-- 0.50 -->
      <g transform="translate(307.03074 322.182437)scale(0.1 -0.1)">
       <use xlink:href="#DejaVuSans-48"/>
       <use x="63.623047" xlink:href="#DejaVuSans-46"/>
       <use x="95.410156" xlink:href="#DejaVuSans-53"/>
       <use x="159.033203" xlink:href="#DejaVuSans-48"/>
      </g>
     </g>
    </g>
    <g id="xtick_8">
     <g id="line2d_8">
      <g>
       <use style="stroke:#000000;stroke-width:0.8;" x="359.165141" xlink:href="#maa5affe619" y="307.584"/>
      </g>
     </g>
     <g id="text_8">
      <!-- 0.75 -->
      <g transform="translate(348.032329 322.182437)scale(0.1 -0.1)">
       <use xlink:href="#DejaVuSans-48"/>
       <use x="63.623047" xlink:href="#DejaVuSans-46"/>
       <use x="95.410156" xlink:href="#DejaVuSans-55"/>
       <use x="159.033203" xlink:href="#DejaVuSans-53"/>
      </g>
     </g>
    </g>
    <g id="xtick_9">
     <g id="line2d_9">
      <g>
       <use style="stroke:#000000;stroke-width:0.8;" x="400.166731" xlink:href="#maa5affe619" y="307.584"/>
      </g>
     </g>
     <g id="text_9">
      <!-- 1.00 -->
      <g transform="translate(389.033918 322.182437)scale(0.1 -0.1)">
       <use xlink:href="#DejaVuSans-49"/>
       <use x="63.623047" xlink:href="#DejaVuSans-46"/>
       <use x="95.410156" xlink:href="#DejaVuSans-48"/>
       <use x="159.033203" xlink:href="#DejaVuSans-48"/>
      </g>
     </g>
    </g>
   </g>
   <g id="matplotlib.axis_2">
    <g id="ytick_1">
     <g id="line2d_10">
      <defs>
       <path d="M 0 0 
L -3.5 0 
" id="m3dfb513f3a" style="stroke:#000000;stroke-width:0.8;"/>
      </defs>
      <g>
       <use style="stroke:#000000;stroke-width:0.8;" x="57.6" xlink:href="#m3dfb513f3a" y="306.283575"/>
      </g>
     </g>
     <g id="text_10">
      <!-- −1.5 -->
      <g transform="translate(26.317187 310.082794)scale(0.1 -0.1)">
       <use xlink:href="#DejaVuSans-8722"/>
       <use x="83.789062" xlink:href="#DejaVuSans-49"/>
       <use x="147.412109" xlink:href="#DejaVuSans-46"/>
       <use x="179.199219" xlink:href="#DejaVuSans-53"/>
      </g>
     </g>
    </g>
    <g id="ytick_2">
     <g id="line2d_11">
      <g>
       <use style="stroke:#000000;stroke-width:0.8;" x="57.6" xlink:href="#m3dfb513f3a" y="262.365139"/>
      </g>
     </g>
     <g id="text_11">
      <!-- −1.0 -->
      <g transform="translate(26.317187 266.164358)scale(0.1 -0.1)">
       <use xlink:href="#DejaVuSans-8722"/>
       <use x="83.789062" xlink:href="#DejaVuSans-49"/>
       <use x="147.412109" xlink:href="#DejaVuSans-46"/>
       <use x="179.199219" xlink:href="#DejaVuSans-48"/>
      </g>
     </g>
    </g>
    <g id="ytick_3">
     <g id="line2d_12">
      <g>
       <use style="stroke:#000000;stroke-width:0.8;" x="57.6" xlink:href="#m3dfb513f3a" y="218.446703"/>
      </g>
     </g>
     <g id="text_12">
      <!-- −0.5 -->
      <g transform="translate(26.317187 222.245921)scale(0.1 -0.1)">
       <use xlink:href="#DejaVuSans-8722"/>
       <use x="83.789062" xlink:href="#DejaVuSans-48"/>
       <use x="147.412109" xlink:href="#DejaVuSans-46"/>
       <use x="179.199219" xlink:href="#DejaVuSans-53"/>
      </g>
     </g>
    </g>
    <g id="ytick_4">
     <g id="line2d_13">
      <g>
       <use style="stroke:#000000;stroke-width:0.8;" x="57.6" xlink:href="#m3dfb513f3a" y="174.528266"/>
      </g>
     </g>
     <g id="text_13">
      <!-- 0.0 -->
      <g transform="translate(34.696875 178.327485)scale(0.1 -0.1)">
       <use xlink:href="#DejaVuSans-48"/>
       <use x="63.623047" xlink:href="#DejaVuSans-46"/>
       <use x="95.410156" xlink:href="#DejaVuSans-48"/>
      </g>
     </g>
    </g>
    <g id="ytick_5">
     <g id="line2d_14">
      <g>
       <use style="stroke:#000000;stroke-width:0.8;" x="57.6" xlink:href="#m3dfb513f3a" y="130.60983"/>
      </g>
     </g>
     <g id="text_14">
      <!-- 0.5 -->
      <g transform="translate(34.696875 134.409049)scale(0.1 -0.1)">
       <use xlink:href="#DejaVuSans-48"/>
       <use x="63.623047" xlink:href="#DejaVuSans-46"/>
       <use x="95.410156" xlink:href="#DejaVuSans-53"/>
      </g>
     </g>
    </g>
    <g id="ytick_6">
     <g id="line2d_15">
      <g>
       <use style="stroke:#000000;stroke-width:0.8;" x="57.6" xlink:href="#m3dfb513f3a" y="86.691393"/>
      </g>
     </g>
     <g id="text_15">
      <!-- 1.0 -->
      <g transform="translate(34.696875 90.490612)scale(0.1 -0.1)">
       <use xlink:href="#DejaVuSans-49"/>
       <use x="63.623047" xlink:href="#DejaVuSans-46"/>
       <use x="95.410156" xlink:href="#DejaVuSans-48"/>
      </g>
     </g>
    </g>
    <g id="ytick_7">
     <g id="line2d_16">
      <g>
       <use style="stroke:#000000;stroke-width:0.8;" x="57.6" xlink:href="#m3dfb513f3a" y="42.772957"/>
      </g>
     </g>
     <g id="text_16">
      <!-- 1.5 -->
      <g transform="translate(34.696875 46.572176)scale(0.1 -0.1)">
       <use xlink:href="#DejaVuSans-49"/>
       <use x="63.623047" xlink:href="#DejaVuSans-46"/>
       <use x="95.410156" xlink:href="#DejaVuSans-53"/>
      </g>
     </g>
    </g>
   </g>
   <g id="line2d_17">
    <path clip-path="url(#p8ab368f527)" d="M 260.988577 174.528266 
L 260.878168 174.339489 
L 260.42306 174.110882 
L 259.354854 173.857711 
L 257.363483 173.634785 
L 254.246523 173.525469 
L 249.836295 173.605303 
L 243.505257 173.961405 
L 219.581907 175.526721 
L 215.589968 175.461058 
L 213.050489 175.212834 
L 211.7583 174.893193 
L 211.352915 174.610468 
L 211.376477 174.408278 
L 211.676227 174.198975 
L 212.478363 173.951815 
L 214.079191 173.710395 
L 216.696855 173.549985 
L 220.532446 173.545975 
L 225.969192 173.777208 
L 234.40508 174.386849 
L 248.098182 175.374428 
L 253.480363 175.532424 
L 257.199318 175.433025 
L 259.517843 175.170081 
L 260.657353 174.851571 
L 260.980721 174.578887 
L 260.988577 174.528266 
L 260.988577 174.528266 
" style="fill:none;stroke:#1f77b4;stroke-linecap:square;stroke-width:1.5;"/>
   </g>
   <g id="line2d_18">
    <path clip-path="url(#p8ab368f527)" d="M 220.412221 190.869395 
L 221.247139 190.638339 
L 222.463713 190.061826 
L 224.012807 189.08027 
L 225.776701 187.701861 
L 227.676544 185.931388 
L 229.637933 183.789017 
L 231.67141 181.221595 
L 233.933346 177.980015 
L 241.621283 166.563898 
L 243.693421 164.123035 
L 245.667857 162.134555 
L 247.608943 160.491323 
L 249.412981 159.25163 
L 250.904524 158.484843 
L 251.926291 158.184673 
L 252.496846 158.220779 
L 252.738683 158.440253 
L 252.774623 158.799881 
L 252.577456 159.385185 
L 252.008147 160.308714 
L 250.836968 161.734395 
L 248.903217 163.714388 
L 245.854593 166.497563 
L 241.030954 170.56872 
L 224.800177 184.046929 
L 222.091981 186.668368 
L 220.491735 188.506172 
L 219.733775 189.691219 
L 219.537309 190.353816 
L 219.62952 190.695171 
L 219.903153 190.86113 
L 220.412221 190.869395 
L 220.412221 190.869395 
" style="fill:none;stroke:#ff7f0e;stroke-linecap:square;stroke-width:1.5;"/>
   </g>
   <g id="line2d_19">
    <path clip-path="url(#p8ab368f527)" d="M 184.756136 168.511018 
L 184.906465 167.983539 
L 185.306269 167.4438 
L 185.949004 166.95717 
L 186.922608 166.498975 
L 188.290602 166.101782 
L 190.116368 165.804135 
L 192.460737 165.649483 
L 195.379098 165.684145 
L 198.91807 165.954182 
L 203.11177 166.501159 
L 208.245121 167.409458 
L 214.374556 168.737121 
L 221.812806 170.586997 
L 232.430375 173.481179 
L 252.481268 178.979762 
L 260.086011 180.807441 
L 266.054384 182.023193 
L 271.00891 182.815428 
L 275.226189 183.267571 
L 278.724825 183.418347 
L 281.54232 183.317219 
L 283.730537 183.018199 
L 285.351493 182.574827 
L 286.406178 182.078544 
L 287.083376 181.542019 
L 287.449814 180.99588 
L 287.570312 180.40922 
L 287.465275 179.850469 
L 287.113535 179.218795 
L 286.448834 178.522756 
L 285.40137 177.777369 
L 283.899603 177.004791 
L 281.872658 176.234374 
L 279.430458 175.544486 
L 276.391921 174.916918 
L 272.706974 174.388848 
L 268.339136 173.995649 
L 263.27043 173.766021 
L 257.208529 173.718543 
L 249.509258 173.897495 
L 238.533032 174.403206 
L 220.768953 175.226277 
L 213.190366 175.344807 
L 206.997731 175.222119 
L 201.862621 174.896748 
L 197.714941 174.422282 
L 194.260576 173.821158 
L 191.296395 173.08549 
L 188.984513 172.290104 
L 187.258835 171.476031 
L 186.047056 170.678354 
L 185.274308 169.924634 
L 184.866096 169.23447 
L 184.750554 168.619929 
L 184.756136 168.511018 
L 184.756136 168.511018 
" style="fill:none;stroke:#2ca02c;stroke-linecap:square;stroke-width:1.5;"/>
   </g>
   <g id="line2d_20">
    <path clip-path="url(#p8ab368f527)" d="M 291.079535 295.130346 
L 302.598281 294.664224 
L 313.796228 294.009637 
L 324.581402 293.16952 
L 334.866972 292.14729 
L 344.572381 290.946829 
L 353.624357 289.572451 
L 360.621267 288.297677 
L 367.085982 286.90833 
L 372.989946 285.407505 
L 378.309232 283.798448 
L 382.130625 282.435544 
L 385.557794 281.007319 
L 388.58503 279.515603 
L 391.208539 277.962265 
L 393.426398 276.349204 
L 394.82346 275.101373 
L 395.992862 273.821853 
L 396.935754 272.511469 
L 397.6538 271.171053 
L 398.149163 269.801437 
L 398.424476 268.403457 
L 398.482821 266.977947 
L 398.327701 265.525743 
L 397.963012 264.047677 
L 397.393016 262.544577 
L 396.622313 261.017268 
L 395.291015 258.944613 
L 393.624038 256.832298 
L 391.634509 254.682221 
L 389.336183 252.49625 
L 386.050771 249.716102 
L 382.333772 246.886237 
L 378.214359 244.010059 
L 372.781243 240.502144 
L 366.861467 236.937752 
L 359.406013 232.714863 
L 350.254089 227.813285 
L 339.280012 222.215783 
L 326.405994 215.909499 
L 310.236702 208.244868 
L 287.838322 197.903108 
L 254.716316 182.88709 
L 178.109067 148.233415 
L 155.943038 137.926584 
L 140.043291 130.298978 
L 127.472267 124.031831 
L 116.841726 118.476813 
L 108.057655 113.619362 
L 100.975782 109.4404 
L 95.416291 105.917862 
L 90.381293 102.455884 
L 86.622734 99.621237 
L 83.292863 96.835961 
L 80.420373 94.103551 
L 78.470423 91.958091 
L 76.844702 89.850629 
L 75.556251 87.783066 
L 74.61735 85.757328 
L 74.149454 84.266641 
L 73.889038 82.801402 
L 73.840188 81.362442 
L 74.006605 79.950592 
L 74.391585 78.56669 
L 74.997989 77.21157 
L 75.828218 75.886065 
L 76.884189 74.59101 
L 78.167311 73.327231 
L 79.678465 72.095554 
L 82.048551 70.504664 
L 84.823782 68.974213 
L 88.00154 67.50609 
L 91.577315 66.102148 
L 95.544676 64.764202 
L 101.041598 63.187265 
L 107.116512 61.719549 
L 113.744091 60.364256 
L 120.894417 59.124434 
L 128.533152 58.00296 
L 138.289814 56.817193 
L 148.620187 55.809997 
L 159.443155 54.985216 
L 170.67141 54.34623 
L 182.212606 53.895929 
L 193.970599 53.636702 
L 205.846767 53.570414 
L 217.741378 53.698395 
L 229.554967 54.02144 
L 241.189702 54.539796 
L 252.5507 55.253173 
L 263.547267 56.160739 
L 274.094047 57.261138 
L 284.112035 58.552497 
L 292.004402 59.772806 
L 299.442223 61.122459 
L 306.392219 62.599607 
L 312.825349 64.202187 
L 318.716925 65.927934 
L 323.026487 67.395568 
L 326.968037 68.939121 
L 330.535012 70.557183 
L 333.722612 72.248281 
L 336.527757 74.010879 
L 338.949035 75.843385 
L 340.513137 77.262655 
L 341.862038 78.719613 
L 342.996854 80.213534 
L 343.919144 81.743679 
L 344.630893 83.309296 
L 345.134486 84.909624 
L 345.432686 86.543891 
L 345.528612 88.211315 
L 345.42571 89.911106 
L 345.127735 91.642467 
L 344.638719 93.404595 
L 343.696973 95.800558 
L 342.43405 98.247846 
L 340.861372 100.744517 
L 338.990893 103.288619 
L 336.834999 105.878196 
L 333.758175 109.176127 
L 330.280675 112.53822 
L 326.428259 115.960651 
L 321.346948 120.141851 
L 315.807708 124.3979 
L 308.825334 129.449214 
L 301.348317 134.583313 
L 292.282717 140.539232 
L 281.534187 147.334475 
L 267.788286 155.746598 
L 249.65618 166.56664 
L 200.098454 195.997207 
L 186.545236 204.375331 
L 176.009236 211.13373 
L 167.176304 217.049981 
L 159.938152 222.143961 
L 153.228715 227.150049 
L 147.951194 231.36323 
L 143.157609 235.497745 
L 139.564919 238.87834 
L 136.365205 242.195922 
L 133.583991 245.446663 
L 131.67715 247.996556 
L 130.066584 250.499263 
L 128.764304 252.952831 
L 127.781807 255.355315 
L 127.261362 257.122492 
L 126.931259 258.859037 
L 126.795577 260.564145 
L 126.858117 262.237019 
L 127.122379 263.876866 
L 127.591537 265.482905 
L 128.268418 267.05436 
L 129.155469 268.590469 
L 130.254744 270.090479 
L 131.567875 271.553649 
L 133.096052 272.97925 
L 134.840003 274.366569 
L 137.501276 276.155572 
L 140.545726 277.873665 
L 143.970904 279.519292 
L 147.772662 281.090955 
L 151.945102 282.587219 
L 156.480546 284.006719 
L 162.64571 285.671177 
L 169.340633 287.211312 
L 176.53844 288.624957 
L 184.207952 289.910156 
L 192.313835 291.065167 
L 202.561308 292.27722 
L 213.305487 293.29747 
L 224.464605 294.124259 
L 235.950949 294.756447 
L 247.671936 295.193429 
L 259.531298 295.435135 
L 271.430358 295.482043 
L 283.269375 295.335171 
L 291.079535 295.130346 
L 291.079535 295.130346 
" style="fill:none;stroke:#d62728;stroke-linecap:square;stroke-width:1.5;"/>
   </g>
   <g id="line2d_21">
    <path clip-path="url(#p8ab368f527)" d="M 189.762994 209.516705 
L 192.630548 208.624315 
L 196.14372 207.293512 
L 200.227898 205.503524 
L 204.515923 203.378721 
L 208.843129 200.979173 
L 212.834458 198.513868 
L 216.630314 195.902649 
L 219.957462 193.348976 
L 223.006903 190.7323 
L 225.763415 188.076425 
L 228.234457 185.399304 
L 230.579162 182.545248 
L 233.043478 179.185741 
L 236.297785 174.318533 
L 240.170693 168.611171 
L 242.606962 165.419499 
L 245.057097 162.567995 
L 247.64182 159.897712 
L 250.517688 157.255266 
L 253.683102 154.660985 
L 257.113367 152.141016 
L 260.994232 149.580381 
L 265.035061 147.182938 
L 269.366097 144.875676 
L 273.600222 142.864889 
L 277.568166 141.210264 
L 281.094912 139.968245 
L 283.867105 139.219341 
L 285.755127 138.929303 
L 286.833117 138.960649 
L 287.411071 139.170913 
L 287.652123 139.461436 
L 287.689324 139.861363 
L 287.481326 140.442091 
L 286.934413 141.248847 
L 285.835419 142.43812 
L 283.945628 144.12226 
L 281.004187 146.420239 
L 276.750893 149.447258 
L 270.642802 153.505539 
L 262.012157 158.9524 
L 249.390998 166.629075 
L 205.483797 193.119356 
L 197.61754 198.220941 
L 192.288932 201.921768 
L 188.780524 204.600887 
L 186.5416 206.563702 
L 185.282953 207.939464 
L 184.726764 208.85671 
L 184.626936 209.433605 
L 184.779516 209.771952 
L 185.132474 210.001163 
L 185.759921 210.129714 
L 186.840211 210.10394 
L 188.526124 209.821403 
L 189.762994 209.516705 
L 189.762994 209.516705 
" style="fill:none;stroke:#9467bd;stroke-linecap:square;stroke-width:1.5;"/>
   </g>
   <g id="line2d_22">
    <path clip-path="url(#p8ab368f527)" d="M 164.329966 227.772512 
L 169.543024 226.194596 
L 175.260608 224.235145 
L 181.799354 221.752535 
L 188.534743 218.946328 
L 194.790289 216.109257 
L 200.892356 213.104546 
L 206.704955 209.984184 
L 211.712175 207.04326 
L 215.933811 204.326742 
L 219.757541 201.614508 
L 223.153041 198.926241 
L 225.854171 196.516516 
L 228.185209 194.148614 
L 230.152836 191.828629 
L 231.772392 189.559863 
L 233.06725 187.342928 
L 234.068072 185.175923 
L 234.811951 183.054659 
L 235.384421 180.766664 
L 235.81305 178.109783 
L 236.198072 174.07551 
L 236.662635 169.827769 
L 237.19395 167.15124 
L 237.888565 164.840511 
L 238.768821 162.694735 
L 239.927163 160.500646 
L 241.235399 158.482163 
L 242.816026 156.421624 
L 244.909534 154.084351 
L 247.369803 151.700973 
L 250.200365 149.278573 
L 253.395502 146.827065 
L 257.312826 144.111994 
L 261.619243 141.397628 
L 266.705356 138.46563 
L 272.120128 135.598424 
L 278.247166 132.610355 
L 284.510955 129.796069 
L 291.234974 127.021362 
L 297.740558 124.577297 
L 303.824207 122.527488 
L 308.922692 121.027913 
L 313.339873 119.958747 
L 316.447787 119.415082 
L 318.710854 119.222216 
L 320.25312 119.30145 
L 321.111979 119.531456 
L 321.603102 119.846785 
L 321.863336 120.271431 
L 321.889506 120.805189 
L 321.679656 121.44746 
L 321.135572 122.332594 
L 320.120267 123.520544 
L 318.481893 125.076656 
L 316.058849 127.069422 
L 312.344949 129.80989 
L 307.385181 133.180566 
L 300.552973 137.54246 
L 291.541577 143.023641 
L 279.50534 150.078894 
L 262.137067 159.978852 
L 231.981813 176.86078 
L 200.966712 194.302226 
L 185.128968 203.456425 
L 174.030008 210.115302 
L 165.994868 215.182736 
L 160.148979 219.124524 
L 156.125984 222.093166 
L 153.529706 224.255092 
L 151.838302 225.927209 
L 150.872852 227.184678 
L 150.489926 227.99687 
L 150.417923 228.575937 
L 150.580946 229.046094 
L 150.976329 229.406971 
L 151.600185 229.658597 
L 152.60989 229.814683 
L 154.122835 229.813561 
L 156.2599 229.587484 
L 159.136526 229.065049 
L 163.214672 228.077936 
L 164.329966 227.772512 
L 164.329966 227.772512 
" style="fill:none;stroke:#8c564b;stroke-linecap:square;stroke-width:1.5;"/>
   </g>
   <g id="line2d_23">
    <path clip-path="url(#p8ab368f527)" d="M 250.144075 172.404976 
L 250.045453 172.342398 
L 249.403546 172.325231 
L 247.408654 172.523327 
L 243.306561 173.173023 
L 234.988772 174.757272 
L 226.454005 176.310989 
L 223.0809 176.722787 
L 222.177954 176.66509 
L 222.261821 176.574262 
L 222.877216 176.362621 
L 224.87331 175.944018 
L 228.83568 175.358537 
L 236.313184 174.512 
L 245.481189 173.425762 
L 249.025935 172.797856 
L 250.134146 172.4261 
L 250.144075 172.404976 
L 250.144075 172.404976 
" style="fill:none;stroke:#e377c2;stroke-linecap:square;stroke-width:1.5;"/>
   </g>
   <g id="patch_3">
    <path d="M 57.6 307.584 
L 57.6 41.472 
" style="fill:none;stroke:#000000;stroke-linecap:square;stroke-linejoin:miter;stroke-width:0.8;"/>
   </g>
   <g id="patch_4">
    <path d="M 414.72 307.584 
L 414.72 41.472 
" style="fill:none;stroke:#000000;stroke-linecap:square;stroke-linejoin:miter;stroke-width:0.8;"/>
   </g>
   <g id="patch_5">
    <path d="M 57.6 307.584 
L 414.72 307.584 
" style="fill:none;stroke:#000000;stroke-linecap:square;stroke-linejoin:miter;stroke-width:0.8;"/>
   </g>
   <g id="patch_6">
    <path d="M 57.6 41.472 
L 414.72 41.472 
" style="fill:none;stroke:#000000;stroke-linecap:square;stroke-linejoin:miter;stroke-width:0.8;"/>
   </g>
  </g>
 </g>
 <defs>
  <clipPath id="p8ab368f527">
   <rect height="266.112" width="357.12" x="57.6" y="41.472"/>
  </clipPath>
 </defs>
</svg>
